<?xml version="1.0" encoding="UTF-8"?>
<svg width="192px" height="192px" viewBox="0 0 192 192" version="1.1" xmlns="http://www.w3.org/2000/svg" xmlns:xlink="http://www.w3.org/1999/xlink">
    <!-- Generator: Sketch 52.5 (67469) - http://www.bohemiancoding.com/sketch -->
    <title>icon-bank-transfer</title>
    <desc>Created with Sketch.</desc>
    <g id="Page-1" stroke="none" stroke-width="1" fill="none" fill-rule="evenodd">
        <g id="Colored-icons" transform="translate(-594.000000, -856.000000)" fill-rule="nonzero">
            <g id="bank-transfer-copy" transform="translate(606.000000, 921.000000)">
                <g id="Group-2">
                    <path d="M41,0.00371803634 L55.9913673,0.00371803634 C61.5119515,-0.082802007 67.570841,1.30647358 67.570841,7.77489497 C67.570841,10.553065 65.8648942,12.810209 63.3518836,14.0256822 C66.7622009,14.9804519 68.8732559,17.8462854 68.8732559,21.3623532 C68.8732559,28.7424748 63.2620347,30.9992377 56.3948992,30.9992377 L41,30.9992377 L41,0.00371803634 Z M49.3476719,12.202663 L55.8120636,12.202663 C57.2476756,12.202663 59.2223809,11.464384 59.2223809,9.2506906 C59.2223809,6.99316542 57.5613586,6.25564875 55.8120636,6.25564875 L49.3476719,6.25564875 L49.3476719,12.202663 Z M49.3476719,24.5311975 L56.0358977,24.5311975 C58.6836816,24.5311975 60.5240077,23.6198784 60.5240077,21.0585802 C60.5240077,18.3234796 58.5493024,17.4117794 56.0358977,17.4117794 L49.3476719,17.4117794 L49.3476719,24.5311975 Z M82.6485105,19.4528139 L89.9191779,19.4528139 L86.373299,8.60007512 L86.2842383,8.60007512 L82.6485105,19.4528139 Z M82.1105994,0.00371803634 L90.5926505,0.00371803634 L102.576838,30.9992377 L93.8693767,30.9992377 L91.8946714,25.4428977 L80.7187296,25.4428977 L78.6987057,30.9992377 L70.1260175,30.9992377 L82.1105994,0.00371803634 Z M104.907393,0.00371803634 L113.481263,0.00371803634 L124.61228,19.104828 L124.701341,19.104828 L124.701341,0.00371803634 L132.557208,0.00371803634 L132.557208,30.9992377 L123.983338,30.9992377 L112.852321,11.6820182 L112.76326,11.6820182 L112.76326,30.9992377 L104.907393,30.9992377 L104.907393,0.00371803634 Z M138.254338,0.00371803634 L146.602798,0.00371803634 L146.602798,11.89889 L157.150191,0.00371803634 L167.518675,0.00371803634 L155.668867,12.202663 L169,30.9996189 L158.632304,30.9996189 L150.014298,17.9770183 L146.603192,21.4500167 L146.603192,31 L138.254732,31 L138.254732,0.00409918191 L138.254338,0.00409918191 L138.254338,0.00371803634 Z" id="Shape" fill="#006E90"></path>
                    <path d="M19.0548622,44.6458976 L12.4220616,44.6458976 L12.4220616,62.5163479 L6.63200663,62.5163479 L6.63200663,44.6458976 L0,44.6458976 L0,39.4844746 L19.0548622,39.4844746 L19.0548622,44.6458976 Z M21.6077104,39.4848859 L32.9409114,39.4848859 C36.8640646,39.4848859 40.7244983,41.3240798 40.7244983,45.9681267 C40.7244983,48.45219 39.5737119,50.8071149 37.2380007,51.7431627 L37.2380007,51.8069093 C39.6038809,52.3884433 40.2882395,55.1291384 40.4756045,57.3232572 C40.5379272,58.2905614 40.6320066,61.6773597 41.4100478,62.5171705 L35.6799337,62.5171705 C35.1821462,61.7431627 35.0888606,59.4848859 35.0265379,58.8400165 C34.8701358,56.5171705 34.4977875,54.1305778 31.7889342,54.1305778 L27.3989562,54.1305778 L27.3989562,62.5171705 L21.6077104,62.5171705 L21.6077104,39.4848859 Z M27.4001471,49.4840633 L32.2557588,49.4840633 C33.999603,49.4840633 34.9336493,48.5167592 34.9336493,46.7754473 C34.9336493,45.0662143 33.6260639,44.2905614 32.007262,44.2905614 L27.3997501,44.2905614 C27.4001471,44.2905614 27.4001471,49.4840633 27.4001471,49.4840633 Z M50.5012201,53.9360477 L55.5453877,53.9360477 L53.0854281,45.870656 L53.0231054,45.870656 L50.5012201,53.9360477 Z M50.127284,39.4848859 L56.0118154,39.4848859 L64.3245496,62.5167592 L58.2836161,62.5167592 L56.9148988,58.3872095 L49.1618779,58.3872095 L47.7614038,62.5167592 L41.8137558,62.5167592 L50.127284,39.4848859 Z M65.9445424,39.4848859 L71.8909995,39.4848859 L79.6130576,53.6781822 L79.6761742,53.6781822 L79.6761742,39.4848859 L85.1248438,39.4848859 L85.1248438,62.5167592 L79.1783867,62.5167592 L71.4555347,48.1626568 L71.393212,48.1626568 L71.393212,62.5167592 L65.9445424,62.5167592 L65.9445424,39.4848859 Z M93.5927893,54.7746247 C93.7178317,57.4840633 95.3366335,58.354308 97.7965932,58.354308 C99.5396434,58.354308 101.34581,57.7098499 101.34581,56.0002056 C101.34581,53.9681267 98.1697353,53.5811228 94.9634914,52.6446638 C91.7874164,51.7094386 88.4557331,50.2264035 88.4557331,45.9997944 C88.4557331,40.967921 93.3442925,39 97.5167365,39 C101.937677,39 106.389581,41.224964 106.421338,46.4188772 L100.630092,46.4188772 C100.723377,44.3222291 98.823925,43.6448694 97.0491179,43.6448694 C95.8038552,43.6448694 94.246979,44.0960313 94.246979,45.6127905 C94.246979,47.3865926 97.4536199,47.7090273 100.691621,48.6450751 C103.899452,49.5803002 107.137056,51.1283159 107.137056,55.2895332 C107.137056,61.1287271 102.341782,63 97.4540169,63 C92.3479236,63 87.8340942,60.6767428 87.8015435,54.7742134 L93.5927893,54.7742134 L93.5927893,54.7746247 Z M109.845513,39.4848859 L126.223278,39.4848859 L126.223278,44.2909727 L115.637552,44.2909727 L115.637552,49.0008225 L124.791047,49.0008225 L124.791047,53.6448694 L115.637552,53.6448694 L115.637552,62.5167592 L109.845513,62.5167592 L109.845513,39.4848859 Z M128.870603,39.4848859 L146.58652,39.4848859 L146.58652,44.2909727 L134.661452,44.2909727 L134.661452,48.3234629 L145.558791,48.3234629 L145.558791,52.9683323 L134.661452,52.9683323 L134.661452,57.3557475 L146.898133,57.3557475 L146.898133,62.5163479 L128.871,62.5163479 L128.870603,39.4848859 Z M150.198457,39.4848859 L161.531658,39.4848859 C165.454811,39.4848859 169.314451,41.3240798 169.314451,45.9681267 C169.314451,48.45219 168.163267,50.8071149 165.827953,51.7431627 L165.827953,51.8069093 C168.193833,52.3884433 168.879383,55.1291384 169.065557,57.3232572 C169.128673,58.2905614 169.221165,61.6773597 170,62.5171705 L164.27068,62.5171705 C163.771701,61.7431627 163.679607,59.4848859 163.616887,58.8400165 C163.461279,56.5171705 163.088137,54.1305778 160.379283,54.1305778 L155.989702,54.1305778 L155.989702,62.5171705 L150.198457,62.5171705 L150.198457,39.4848859 Z M155.989702,49.4840633 L160.847299,49.4840633 C162.590349,49.4840633 163.523602,48.5167592 163.523602,46.7754473 C163.523602,45.0662143 162.217207,44.2905614 160.597214,44.2905614 L155.989702,44.2905614 L155.989702,49.4840633 Z" id="Shape" fill="#66CDE7"></path>
                    <path d="M0,0 L34,0 L34,6.73922986 L0,6.73922986 L0,0 Z M0,24.2611513 L34,24.2611513 L34,31 L0,31 L0,24.2611513 Z M0,12.1284794 L34,12.1284794 L34,18.8677093 L0,18.8677093 L0,12.1284794 Z" id="Rectangle-path" fill="#D92B2B"></path>
                </g>
            </g>
        </g>
    </g>
</svg>